<?xml version="1.0" encoding="utf-8"?>
<!-- Generator: Fusion 360, Shaper Origin Export Add-In, Version 1.6.10  -->
<svg xmlns="http://www.w3.org/2000/svg" xmlns:xlink="http://www.w3.org/1999/xlink" xmlns:shaper="http://www.shapertools.com/namespaces/shaper" shaper:fusionaddin="version:1.6.10" width="12.8747622cm" height="12.1561182cm" version="1.1" x="0cm" y="0cm" viewBox="0 0 12.8747622 12.1561182" enable-background="new 0 0 12.8747622 12.1561182" xml:space="preserve"><g id="Body_outer"><path d="M6.4345386,6.017849 L6.4345386,-6.1382692 -6.4402236,-6.1382692 -6.4402236,6.017849 6.4345386,6.017849z" transform="matrix(1,0,0,-1,6.4402236,6.017849)" fill="rgb(0,0,0)" shaper:cutDepth="0.032" stroke-linecap="round" stroke-linejoin="round" /><path d="M-4.7637127,4.765843 L-4.7637127,-4.7658435 4.7637127,-4.7658435 4.7637127,4.765843 -4.7637127,4.765843z" transform="matrix(1,0,0,-1,6.4402236,6.017849)" fill="rgb(255,255,255)" stroke="rgb(0,0,0)" stroke-width="0.0010cm" stroke-linecap="round" stroke-linejoin="round" shaper:cutDepth="0.032" /><path d="M-6.0908627,-0.0000002 a0.48895,0.48895 0 1,1 0.9779,0 a0.48895,0.48895 0 1,1 -0.9779,0z" transform="matrix(1,0,0,-1,6.4402236,6.017849)" fill="rgb(255,255,255)" stroke="rgb(0,0,0)" stroke-width="0.0010cm" stroke-linecap="round" stroke-linejoin="round" shaper:cutDepth="0.032" /><path d="M5.1078827,-0.0000002 a0.48895,0.48895 0 1,1 0.9779,0 a0.48895,0.48895 0 1,1 -0.9779,0z" transform="matrix(1,0,0,-1,6.4402236,6.017849)" fill="rgb(255,255,255)" stroke="rgb(0,0,0)" stroke-width="0.0010cm" stroke-linecap="round" stroke-linejoin="round" shaper:cutDepth="0.032" /></g><g id="Body_propeller"><path d="M-1.9212003,2.6442748 L-1.9212003,2.6442748 -1.9468436,2.6789088 -1.9731158,2.7130668 -2.0000138,2.7467128 -2.0275346,2.7798109 -2.0556752,2.8123252 -2.0844324,2.8442197 -2.1138032,2.8754584 -2.1437845,2.9060056 -2.1743733,2.9358252 -2.2055664,2.9648812 -2.2373609,2.9931378 -2.2697536,3.0205591 -2.3027042,3.0470751 -2.3361614,3.0726173 -2.3701153,3.0971615 -2.4045561,3.1206835 -2.4394742,3.1431592 -2.4748597,3.1645644 -2.5107029,3.1848749 -2.5469941,3.2040665 -2.5837235,3.2221151 -2.6208814,3.2389965 -2.6584579,3.2546866 -2.6964182,3.2691529 -2.7345896,3.2823308 -2.7729176,3.2942149 -2.8113732,3.3048094 -2.8499275,3.3141186 -2.8885517,3.3221469 -2.9272169,3.3288985 -2.9658942,3.3343778 -3.0045547,3.3385891 -3.0431695,3.3415368 -3.0817097,3.3432251 -3.1201465,3.3436583 -3.1584509,3.3428409 -3.1965561,3.3407798 -3.2343469,3.3374917 -3.2717974,3.3329916 -3.3088854,3.3272945 -3.3455889,3.3204153 -3.3818858,3.3123689 -3.417754,3.3031703 -3.4531714,3.2928345 -3.4881159,3.2813762 -3.5225654,3.2688106 -3.5564979,3.2551524 -3.5898912,3.2404167 -3.6227233,3.2246184 -3.6549695,3.2077739 -3.6865533,3.1899309 -3.7174351,3.1711237 -3.747598,3.1513748 -3.7770256,3.1307066 -3.8057009,3.1091415 -3.8336075,3.0867018 -3.8607287,3.06341 -3.8870477,3.0392885 -3.912548,3.0143597 -3.9372128,2.988646 -3.9610255,2.9621697 -3.9839695,2.9349534 -4.006028,2.9070193 -4.0271844,2.87839 -4.0271844,2.87839 -4.0815348,2.8007613 -4.1343886,2.7221021 -4.1857288,2.6424427 -4.2355384,2.5618137 -4.2838007,2.4802455 -4.3304986,2.3977685 -4.3756153,2.3144133 -4.4191338,2.2302102 -4.4610372,2.1451897 -4.5013086,2.0593824 -4.5399312,1.9728186 -4.5768905,1.885532 -4.6121719,1.7975566 -4.6457593,1.7089255 -4.6776366,1.6196714 -4.707788,1.5298274 -4.707788,1.5298274 -4.7121859,1.5159805 -4.7121859,1.5159805 -4.7291067,1.46078 -4.7291067,1.46078 -4.7450875,1.4086931 -4.7604873,1.3564297 -4.7753024,1.3039979 -4.7895295,1.2514041 -4.7895295,1.2514041 -4.797531,1.2191522 -4.8045321,1.1866845 -4.8105285,1.1540236 -4.8155162,1.121192 -4.8194909,1.0882123 -4.8224484,1.0551071 -4.8243845,1.0218989 -4.8252949,0.9886102 -4.8251755,0.9552637 -4.824022,0.9218819 -4.8218303,0.8884874 -4.8185961,0.8551026 -4.8143152,0.8217503 -4.8089835,0.7884529 -4.8025967,0.7552333 -4.7951621,0.7221615 -4.7866892,0.6892921 -4.7771817,0.6566463 -4.7666432,0.624245 -4.7550776,0.5921094 -4.7424886,0.5602604 -4.7288798,0.5287192 -4.7142549,0.4975068 -4.6986177,0.4666442 -4.681972,0.4361525 -4.6643213,0.4060528 -4.6456695,0.376366 -4.6260201,0.3471133 -4.6053771,0.3183157 -4.5837613,0.2900177 -4.5612301,0.2623062 -4.5377984,0.2352037 -4.5134782,0.2087289 -4.4882816,0.1829003 -4.4622206,0.1577363 -4.4353073,0.1332556 -4.4075535,0.1094766 -4.3789715,0.0864178 -4.3495731,0.0640978 -4.3193705,0.0425351 -4.2883757,0.0217482 -4.2566007,0.0017557 -4.2240575,-0.017424 -4.1908128,-0.0357478 -4.1569713,-0.0531722 -4.1225552,-0.0697023 -4.0875854,-0.085344 -4.0520829,-0.1001029 -4.0160687,-0.1139849 -3.9795638,-0.1269956 -3.9425892,-0.1391408 -3.9051659,-0.1504264 -3.8673148,-0.1608579 -3.8290711,-0.1704389 -3.7905099,-0.1791695 -3.7516602,-0.187062 -3.7125464,-0.19413 -3.6731929,-0.2003868 -3.6336238,-0.2058459 -3.5938636,-0.2105207 -3.5539365,-0.2144246 -3.5138669,-0.2175711 -3.4736789,-0.2199735 -3.4333971,-0.2216454 -3.4333971,-0.2216454 -2.8788949,-0.2390962 -2.3243663,-0.2550912 -1.7701722,-0.269272 -1.6316934,-0.2725219 -1.4926114,-0.2754247 -1.3525839,-0.2777847 -1.2840982,-0.2788508 -1.2507777,-0.2794879 -1.2181764,-0.2802613 A1.25,1.25 192.9563612 0,1 -1.0110331,-0.7350594 L-1.0110331,-0.7350594 -1.827763,-1.3278026 -2.644275,-1.9212006 -2.644275,-1.9212006 -2.678909,-1.9468438 -2.713067,-1.973116 -2.746713,-2.000014 -2.7798111,-2.0275349 -2.8123254,-2.0556754 -2.8442199,-2.0844327 -2.8754587,-2.1138035 -2.9060058,-2.1437848 -2.9358254,-2.1743735 -2.9648815,-2.2055667 -2.9931381,-2.2373611 -3.0205593,-2.2697538 -3.0470753,-2.3027045 -3.0726175,-2.3361616 -3.0971617,-2.3701155 -3.1206838,-2.4045563 -3.1431595,-2.4394744 -3.1645646,-2.4748599 -3.1848751,-2.5107032 -3.2040668,-2.5469944 -3.2221154,-2.5837238 -3.2389968,-2.6208816 -3.2546868,-2.6584582 -3.2691531,-2.6964184 -3.2823311,-2.7345898 -3.2942151,-2.7729178 -3.3048096,-2.8113734 -3.3141188,-2.8499277 -3.3221471,-2.888552 -3.3288987,-2.9272171 -3.334378,-2.9658944 -3.3385894,-3.0045549 -3.341537,-3.0431697 -3.3432253,-3.0817099 -3.3436586,-3.1201467 -3.3428411,-3.1584512 -3.3407801,-3.1965564 -3.337492,-3.2343472 -3.3329919,-3.2717976 -3.3272948,-3.3088857 -3.3204155,-3.3455892 -3.3123692,-3.3818861 -3.3031706,-3.4177542 -3.2928347,-3.4531716 -3.2813765,-3.4881162 -3.2688108,-3.5225657 -3.2551527,-3.5564982 -3.240417,-3.5898915 -3.2246187,-3.6227235 -3.2077741,-3.6549697 -3.1899311,-3.6865536 -3.1711239,-3.7174353 -3.1513751,-3.7475983 -3.1307069,-3.7770258 -3.1091417,-3.8057012 -3.086702,-3.8336078 -3.0634103,-3.8607289 -3.0392887,-3.887048 -3.0143599,-3.9125482 -2.9886462,-3.937213 -2.96217,-3.9610257 -2.9349536,-3.9839697 -2.9070196,-4.0060282 -2.8783902,-4.0271846 -2.8783902,-4.0271846 -2.8007616,-4.0815351 -2.7221023,-4.1343888 -2.642443,-4.185729 -2.561814,-4.2355387 -2.4802457,-4.2838009 -2.3977688,-4.3304988 -2.3144135,-4.3756155 -2.2302104,-4.419134 -2.14519,-4.4610374 -2.0593826,-4.5013089 -1.9728188,-4.5399314 -1.8855322,-4.5768907 -1.7975569,-4.6121721 -1.7089257,-4.6457595 -1.6196717,-4.6776369 -1.5298276,-4.7077883 -1.5298276,-4.7077883 -1.5159808,-4.7121861 -1.5159808,-4.7121861 -1.4607803,-4.7291069 -1.4607803,-4.7291069 -1.4086934,-4.7450877 -1.3564299,-4.7604876 -1.3039981,-4.7753026 -1.2514043,-4.7895298 -1.2514043,-4.7895298 -1.2191525,-4.7975312 -1.1866848,-4.8045323 -1.1540239,-4.8105288 -1.1211923,-4.8155165 -1.0882126,-4.8194912 -1.0551073,-4.8224486 -1.0218991,-4.8243847 -0.9886105,-4.8252951 -0.955264,-4.8251757 -0.9218822,-4.8240222 -0.8884876,-4.8218305 -0.8551029,-4.8185963 -0.8217505,-4.8143155 -0.7884531,-4.8089837 -0.7552336,-4.802597 -0.7221617,-4.7951624 -0.6892923,-4.7866894 -0.6566465,-4.7771819 -0.6242452,-4.7666435 -0.5921096,-4.7550779 -0.5602607,-4.7424888 -0.5287194,-4.72888 -0.497507,-4.7142552 -0.4666444,-4.698618 -0.4361528,-4.6819722 -0.406053,-4.6643215 -0.3763663,-4.6456697 -0.3471136,-4.6260204 -0.318316,-4.6053773 -0.290018,-4.5837616 -0.2623064,-4.5612304 -0.235204,-4.5377987 -0.2087292,-4.5134785 -0.1829005,-4.4882819 -0.1577366,-4.4622209 -0.1332558,-4.4353075 -0.1094768,-4.4075538 -0.086418,-4.3789717 -0.064098,-4.3495734 -0.0425353,-4.3193708 -0.0217485,-4.2883759 -0.0017559,-4.2566009 0.0174238,-4.2240577 0.0357476,-4.190813 0.053172,-4.1569716 0.0697021,-4.1225555 0.0853438,-4.0875857 0.1001027,-4.0520832 0.1139846,-4.016069 0.1269954,-3.9795641 0.1391406,-3.9425895 0.1504261,-3.9051661 0.1608577,-3.8673151 0.1704387,-3.8290714 0.1791692,-3.7905101 0.1870618,-3.7516604 0.1941298,-3.7125467 0.2003866,-3.6731931 0.2058457,-3.6336241 0.2105205,-3.5938639 0.2144244,-3.5539368 0.2175709,-3.5138671 0.2199733,-3.4736792 0.2216451,-3.4333973 0.2216451,-3.4333973 0.239096,-2.8788951 0.2550909,-2.3243666 0.2692718,-1.7701724 0.2725217,-1.6316936 0.2754244,-1.4926116 0.2777845,-1.3525841 0.2788506,-1.2840984 0.2794877,-1.250778 0.2802611,-1.2181766 A1.25,1.25 282.9563612 0,1 0.7350592,-1.0110334 L0.7350592,-1.0110334 1.3278023,-1.8277632 1.9212003,-2.6442752 1.9212003,-2.6442752 1.9468436,-2.6789093 1.9731158,-2.7130672 2.0000138,-2.7467133 2.0275346,-2.7798114 2.0556752,-2.8123256 2.0844324,-2.8442201 2.1138032,-2.8754589 2.1437845,-2.9060061 2.1743733,-2.9358256 2.2055664,-2.9648817 2.2373609,-2.9931383 2.2697536,-3.0205596 2.3027042,-3.0470756 2.3361614,-3.0726178 2.3701153,-3.097162 2.4045561,-3.120684 2.4394742,-3.1431597 2.4748597,-3.1645649 2.5107029,-3.1848754 2.5469941,-3.204067 2.5837235,-3.2221156 2.6208814,-3.238997 2.6584579,-3.2546871 2.6964182,-3.2691533 2.7345896,-3.2823313 2.7729176,-3.2942154 2.8113732,-3.3048099 2.8499275,-3.3141191 2.8885517,-3.3221473 2.9272169,-3.328899 2.9658942,-3.3343783 3.0045547,-3.3385896 3.0431695,-3.3415373 3.0817097,-3.3432256 3.1201465,-3.3436588 3.1584509,-3.3428413 3.1965561,-3.3407803 3.2343469,-3.3374922 3.2717974,-3.3329921 3.3088854,-3.327295 3.3455889,-3.3204158 3.3818858,-3.3123694 3.417754,-3.3031708 3.4531714,-3.2928349 3.4881159,-3.2813767 3.5225654,-3.268811 3.5564979,-3.2551529 3.5898912,-3.2404172 3.6227233,-3.2246189 3.6549695,-3.2077743 3.6865533,-3.1899313 3.7174351,-3.1711242 3.747598,-3.1513753 3.7770256,-3.1307071 3.8057009,-3.109142 3.8336075,-3.0867023 3.8607287,-3.0634105 3.8870477,-3.039289 3.912548,-3.0143602 3.9372128,-2.9886464 3.9610255,-2.9621702 3.9839695,-2.9349539 4.006028,-2.9070198 4.0271844,-2.8783905 4.0271844,-2.8783905 4.0815348,-2.8007618 4.1343886,-2.7221026 4.1857288,-2.6424432 4.2355384,-2.5618142 4.2838007,-2.480246 4.3304986,-2.397769 4.3756153,-2.3144137 4.4191338,-2.2302107 4.4610372,-2.1451902 4.5013086,-2.0593828 4.5399312,-1.9728191 4.5768905,-1.8855324 4.6121719,-1.7975571 4.6457593,-1.708926 4.6776366,-1.6196719 4.707788,-1.5298278 4.707788,-1.5298278 4.7121859,-1.515981 4.7121859,-1.515981 4.7291067,-1.4607805 4.7291067,-1.4607805 4.7450875,-1.4086936 4.7604873,-1.3564302 4.7753024,-1.3039984 4.7895295,-1.2514046 4.7895295,-1.2514046 4.797531,-1.2191527 4.8045321,-1.186685 4.8105285,-1.1540241 4.8155162,-1.1211925 4.8194909,-1.0882128 4.8224484,-1.0551076 4.8243845,-1.0218994 4.8252949,-0.9886107 4.8251755,-0.9552642 4.824022,-0.9218824 4.8218303,-0.8884878 4.8185961,-0.8551031 4.8143152,-0.8217508 4.8089835,-0.7884534 4.8025967,-0.7552338 4.7951621,-0.722162 4.7866892,-0.6892926 4.7771817,-0.6566467 4.7666432,-0.6242455 4.7550776,-0.5921098 4.7424886,-0.5602609 4.7288798,-0.5287197 4.7142549,-0.4975073 4.6986177,-0.4666447 4.681972,-0.436153 4.6643213,-0.4060532 4.6456695,-0.3763665 4.6260201,-0.3471138 4.6053771,-0.3183162 4.5837613,-0.2900182 4.5612301,-0.2623066 4.5377984,-0.2352042 4.5134782,-0.2087294 4.4882816,-0.1829008 4.4622206,-0.1577368 4.4353073,-0.1332561 4.4075535,-0.109477 4.3789715,-0.0864183 4.3495731,-0.0640983 4.3193705,-0.0425356 4.2883757,-0.0217487 4.2566007,-0.0017561 4.2240575,0.0174236 4.1908128,0.0357474 4.1569713,0.0531717 4.1225552,0.0697019 4.0875854,0.0853435 4.0520829,0.1001024 4.0160687,0.1139844 3.9795638,0.1269951 3.9425892,0.1391404 3.9051659,0.1504259 3.8673148,0.1608575 3.8290711,0.1704384 3.7905099,0.179169 3.7516602,0.1870615 3.7125464,0.1941295 3.6731929,0.2003864 3.6336238,0.2058455 3.5938636,0.2105202 3.5539365,0.2144242 3.5138669,0.2175706 3.4736789,0.2199731 3.4333971,0.2216449 3.4333971,0.2216449 2.8788949,0.2390957 2.3243663,0.2550907 1.7701722,0.2692715 1.6316934,0.2725214 1.4926114,0.2754242 1.3525839,0.2777843 1.2840982,0.2788503 1.2507777,0.2794875 1.2181764,0.2802608 A1.25,1.25 12.9563612 0,1 1.0110331,0.735059 L1.0110331,0.735059 1.827763,1.3278021 2.644275,1.9212001 2.644275,1.9212001 2.678909,1.9468434 2.713067,1.9731155 2.746713,2.0000136 2.7798111,2.0275344 2.8123254,2.055675 2.8442199,2.0844322 2.8754587,2.113803 2.9060058,2.1437843 2.9358254,2.1743731 2.9648815,2.2055662 2.9931381,2.2373607 3.0205593,2.2697534 3.0470753,2.302704 3.0726175,2.3361611 3.0971617,2.370115 3.1206838,2.4045559 3.1431595,2.4394739 3.1645646,2.4748595 3.1848751,2.5107027 3.2040668,2.5469939 3.2221154,2.5837233 3.2389968,2.6208812 3.2546868,2.6584577 3.2691531,2.6964179 3.2823311,2.7345894 3.2942151,2.7729173 3.3048096,2.8113729 3.3141188,2.8499273 3.3221471,2.8885515 3.3288987,2.9272167 3.334378,2.9658939 3.3385894,3.0045544 3.341537,3.0431692 3.3432253,3.0817095 3.3436586,3.1201463 3.3428411,3.1584507 3.3407801,3.1965559 3.337492,3.2343467 3.3329919,3.2717972 3.3272948,3.3088852 3.3204155,3.3455887 3.3123692,3.3818856 3.3031706,3.4177538 3.2928347,3.4531712 3.2813765,3.4881157 3.2688108,3.5225652 3.2551527,3.5564977 3.240417,3.589891 3.2246187,3.6227231 3.2077741,3.6549692 3.1899311,3.6865531 3.1711239,3.7174349 3.1513751,3.7475978 3.1307069,3.7770253 3.1091417,3.8057007 3.086702,3.8336073 3.0634103,3.8607284 3.0392887,3.8870475 3.0143599,3.9125477 2.9886462,3.9372126 2.96217,3.9610253 2.9349536,3.9839692 2.9070196,4.0060277 2.8783902,4.0271841 2.8783902,4.0271841 2.8007616,4.0815346 2.7221023,4.1343884 2.642443,4.1857285 2.561814,4.2355382 2.4802457,4.2838004 2.3977688,4.3304984 2.3144135,4.375615 2.2302104,4.4191335 2.14519,4.461037 2.0593826,4.5013084 1.9728188,4.539931 1.8855322,4.5768903 1.7975569,4.6121716 1.7089257,4.645759 1.6196717,4.6776364 1.5298276,4.7077878 1.5298276,4.7077878 1.5159808,4.7121856 1.5159808,4.7121856 1.4607803,4.7291064 1.4607803,4.7291064 1.4086934,4.7450873 1.3564299,4.7604871 1.3039981,4.7753022 1.2514043,4.7895293 1.2514043,4.7895293 1.2191525,4.7975308 1.1866848,4.8045318 1.1540239,4.8105283 1.1211923,4.815516 1.0882126,4.8194907 1.0551073,4.8224482 1.0218991,4.8243842 0.9886105,4.8252946 0.955264,4.8251752 0.9218822,4.8240218 0.8884876,4.82183 0.8551029,4.8185959 0.8217505,4.814315 0.7884531,4.8089833 0.7552336,4.8025965 0.7221617,4.7951619 0.6892923,4.786689 0.6566465,4.7771814 0.6242452,4.766643 0.5921096,4.7550774 0.5602607,4.7424883 0.5287194,4.7288795 0.497507,4.7142547 0.4666444,4.6986175 0.4361528,4.6819717 0.406053,4.6643211 0.3763663,4.6456692 0.3471136,4.6260199 0.318316,4.6053769 0.290018,4.5837611 0.2623064,4.5612299 0.235204,4.5377982 0.2087292,4.513478 0.1829005,4.4882814 0.1577366,4.4622204 0.1332558,4.435307 0.1094768,4.4075533 0.086418,4.3789712 0.064098,4.3495729 0.0425353,4.3193703 0.0217485,4.2883755 0.0017559,4.2566004 -0.0174238,4.2240572 -0.0357476,4.1908126 -0.053172,4.1569711 -0.0697021,4.122555 -0.0853438,4.0875852 -0.1001027,4.0520827 -0.1139846,4.0160685 -0.1269954,3.9795636 -0.1391406,3.942589 -0.1504261,3.9051657 -0.1608577,3.8673146 -0.1704387,3.8290709 -0.1791692,3.7905096 -0.1870618,3.7516599 -0.1941298,3.7125462 -0.2003866,3.6731926 -0.2058457,3.6336236 -0.2105205,3.5938634 -0.2144244,3.5539363 -0.2175709,3.5138666 -0.2199733,3.4736787 -0.2216451,3.4333968 -0.2216451,3.4333968 -0.239096,2.8788946 -0.2550909,2.3243661 -0.2692718,1.770172 -0.2725217,1.6316931 -0.2754244,1.4926112 -0.2777845,1.3525836 -0.2788506,1.2840979 -0.2794877,1.2507775 -0.2802611,1.2181762 A1.25,1.25 102.9563612 0,1 -0.7350592,1.0110329 L-0.7350592,1.0110329 -1.3278023,1.8277627 -1.9212003,2.6442748z" transform="matrix(1,0,0,-1,6.4402236,6.017849)" fill="rgb(0,0,0)" shaper:cutDepth="0.032" stroke-linecap="round" stroke-linejoin="round" /></g></svg>