<svg viewBox="-360 -240 720 480" width="720" height="480" style="touch-action: none; background-color: rgb(36, 36, 36);"><path d="M270.1147904132611,-306.1862178478974L424.26406871192853,-217.18809052677528M-96.16652224137056,-272.70985802986064L-308.2985565973348,-150.23537089070166M-308.2985565973348,-177.99625464224437L-96.16652224137056,-300.4707417814033M212.13203435596424,-94.71360338761632L424.26406871192853,-217.18809052677528M424.26406871192853,-244.948974278318L212.13203435596424,-122.474487139159M-154.14927829866744,-61.23724356957951L-308.2985565973348,-150.23537089070166M-308.2985565973348,-150.23537089070166L-308.2985565973348,-164.11581276647303M-308.2985565973348,-164.11581276647303L-308.2985565973348,-177.99625464224437M-308.2985565973348,-177.99625464224437L-154.14927829866744,-88.99812732112221M-3.996802888650564e-14,27.76088375154268L212.13203435596424,-94.71360338761632" style="fill:none;stroke:rgb(255,255,255);stroke-opacity:1;stroke-width:1;stroke-linecap:round;stroke-dasharray:3,3"></path><path d="M-0.741249211025633,-81.00597007614368L114.0052920559327,-146.9732019815492L70.58372026359508,-172.10415259689324z" style="fill:rgb(255,0,0);fill-opacity:0.2"></path><path d="M212.13203435596424,-122.474487139159L-3.996802888650564e-14,-2.6645352591003763e-14" style="fill:none;stroke:rgb(255,255,255);stroke-opacity:1;stroke-width:1;stroke-linecap:round;stroke-dasharray:3,3"></path><path d="M-43.29289863072782,-106.14536501800615L0.12542263133614273,-81.0054648045303L71.45174724685336,-172.10766578566336z" style="fill:rgb(255,0,0);fill-opacity:0.2"></path><path d="M-3.996802888650564e-14,27.76088375154268L-154.14927829866744,-61.23724356957951" style="fill:none;stroke:rgb(255,255,255);stroke-opacity:1;stroke-width:1;stroke-linecap:round;stroke-dasharray:3,3"></path><path d="M58.44620722297704,-94.06569179088122L58.55187829833631,-97.77395498623872L57.60305792696111,-95.47447750065535zM58.2801336235097,-93.30184233453377L58.006379237700166,-95.4996915417196L41.45253084819267,-98.19787022281zM57.526566996967205,-92.98501080273758L58.93745183469796,-95.3545891679716L57.48424934022535,-96.12045918031899zM57.95617606902925,-94.48833589870456L58.593828628546824,-97.31348854946414L41.43841517096968,-98.10717831164503z" style="fill:rgb(0,255,0);fill-opacity:1"></path><path d="M120.20815280171304,-85.73214099741129L57.982756057296854,-95.53009996854404" style="fill:none;stroke:rgb(0,255,0);stroke-opacity:1;stroke-width:1;stroke-linecap:round"></path><path d="M59.08259159665726,-97.18077263992434L57.31902103402152,-97.38562002499401L57.9501546584525,-94.6014960611281zM57.136448713576335,-95.24887397420859L57.75646649343743,-92.94342858467567L58.40247768849282,-96.35761179739593zM58.0469634099899,-97.8318299155468L57.22648522317978,-94.15740782035532L58.27132042148012,-95.47027528112844z" style="fill:rgb(0,255,0);fill-opacity:1"></path><path d="M-154.14927829866744,-88.99812732112221L-3.996802888650564e-14,-2.6645352591003763e-14M-3.996802888650564e-14,13.880441875771327L-3.996802888650564e-14,27.76088375154268M-3.996802888650564e-14,-2.6645352591003763e-14L-3.996802888650564e-14,13.880441875771327" style="fill:none;stroke:rgb(255,255,255);stroke-opacity:1;stroke-width:1;stroke-linecap:round;stroke-dasharray:3,3"></path></svg>