<svg viewBox="-360 -240 720 480" width="720" height="480" style="touch-action: none; background-color: rgb(36, 36, 36);" xmlns="http://www.w3.org/2000/svg" xmlns:xlink="http://www.w3.org/1999/xlink"><path d="M-330,239.79996258576335L-330,-0.00003741411669954815M330,-0.00003741411669954815L330,239.79996258576335M330,239.79996258576335L330,239.7999812928216M0,239.79996258576335L330,239.79996258576335M-330,239.79996258576335L0,239.79996258576335M-330,239.7999812928216L-330,239.79996258576335M-330,-0.00003741411669954815L-330,-239.8000374139968M330,-239.8000374139968L330,-0.00003741411669954815M-330,-239.8000374139968L-330,-239.80001870693852M0,-239.8000374139968L-330,-239.8000374139968M330,-239.8000374139968L0,-239.8000374139968M330,-239.80001870693852L330,-239.8000374139968M330,239.7999812928216L330,239.79999999987984M-330,239.79999999987984L-330,239.7999812928216M-330,-239.80001870693852L-330,-239.79999999988027M330,-239.79999999988027L330,-239.80001870693852M-330,-2.1944252076985728e-13L-330,239.79999999987984M330,239.79999999987984L330,-2.1944252076985728e-13M330,239.79999999987984L0,239.79999999987984M0,239.79999999987984L-330,239.79999999987984" style="fill:none;stroke:rgb(255,255,255);stroke-opacity:1;stroke-width:1;stroke-linecap:round;stroke-dasharray:3,3"/><path d="M-121.00000000000001,217.79999999989084L-156.2,156.19999999992166" style="fill:none;stroke:rgb(0,255,0);stroke-opacity:1;stroke-width:1;stroke-linecap:round"/><path d="M-220.96789043243348,129.97629107525415L-43.49621222990461,130.2999856525267L-43.53589733766194,63.12372327205667zM-220.499999161024,63.299084044002576L-220.46772628421238,130.47672612436727L-43.03227455476368,63.624189831500665z" style="fill:rgb(255,0,0);fill-opacity:0.2"/><path d="M-330,-239.79999999988027L-330,-2.1944252076985728e-13M330,-2.1944252076985728e-13L330,-239.79999999988027M-330,-239.79999999988027L0,-239.79999999988027M0,-239.79999999988027L330,-239.79999999988027" style="fill:none;stroke:rgb(255,255,255);stroke-opacity:1;stroke-width:1;stroke-linecap:round;stroke-dasharray:3,3"/><path d="M-157.9037811285289,157.74542061827546L-155.5056744296648,156.37889154691615L-165.45517151342537,139.912619912467zM-156.39656868411885,156.88803594811904L-154.00192344640945,155.5155041185832L-165.5368807978527,139.95953250053543z" style="fill:rgb(0,255,0);fill-opacity:1"/><text x="-110" y="230" fill="pink" font-size="30px">Place stock here</text></svg>