<svg viewBox="-360 -240 720 480" width="720" height="480" style="touch-action: none; background-color: rgb(36, 36, 36);" xmlns="http://www.w3.org/2000/svg" xmlns:xlink="http://www.w3.org/1999/xlink"><path d="M-76.88418320714466,-19.775028468181212L5038.6278326569,-1921.9260163924985M63.94390019830054,-23.776887349053965L-6086.79075637327,-1605.7791648035504" style="fill:none;stroke:rgb(255,0,0);stroke-opacity:1;stroke-width:1;stroke-linecap:round"/><path d="M48.448362406652855,-196.5471670553149L216.0558817982281,-153.43760499467993M48.448362406652855,-196.5471670553149L-143.38333818824884,-125.216505008153M48.448362406652855,-212.71380763545432L48.448362406652855,-196.5471670553149M48.448362406652855,-228.88044821559373L48.448362406652855,-212.71380763545432M216.0558817982281,-185.77088615495876L48.448362406652855,-228.88044821559373M-143.38333818824884,-157.54978616843184L48.448362406652855,-228.88044821559373M216.0558817982281,-153.43760499467993L383.6634011898034,-110.32804293404496M383.6634011898034,-142.6613240943238L216.0558817982281,-185.77088615495876M-143.38333818824884,-125.216505008153L-335.21503878315053,-53.88584296099113M-335.21503878315053,-86.21912412126996L-143.38333818824884,-157.54978616843184M191.83170059490166,-38.99738088688306L383.6634011898034,-110.32804293404496M383.6634011898034,-142.6613240943238L191.83170059490166,-71.3306620471619M-167.6075193915753,-10.776280900356147L-335.21503878315053,-53.88584296099113M-335.21503878315053,-53.88584296099113L-335.21503878315053,-70.05248354113054M-335.21503878315053,-70.05248354113054L-335.21503878315053,-86.21912412126996M-335.21503878315053,-86.21912412126996L-167.6075193915753,-43.10956206063498M-2.997602166487922e-14,32.33328116027883L191.83170059490166,-38.99738088688306M191.83170059490166,-71.3306620471619L-2.997602166487922e-14,0M-2.997602166487922e-14,32.33328116027883L-167.6075193915753,-10.776280900356147M-167.6075193915753,-43.10956206063498L-2.997602166487922e-14,0" style="fill:none;stroke:rgb(255,255,255);stroke-opacity:1;stroke-width:1;stroke-linecap:round;stroke-dasharray:3,3"/><path d="M372.85008096849674,55.67545595372435L63.94390019830054,-23.776887349053965M-279.7954463578156,55.67545595372414L-76.88418320714466,-19.775028468181212" style="fill:none;stroke:rgb(255,0,0);stroke-opacity:1;stroke-width:1;stroke-linecap:round"/><path d="M-2.997602166487922e-14,16.16664058013943L-2.997602166487922e-14,32.33328116027883M-2.997602166487922e-14,0L-2.997602166487922e-14,16.16664058013943" style="fill:none;stroke:rgb(255,255,255);stroke-opacity:1;stroke-width:1;stroke-linecap:round;stroke-dasharray:3,3"/></svg>